<?xml version="1.0" ?><svg height="512" id="Layer_1" version="1.1" viewBox="0 0 512.00003 512" width="512" xml:space="preserve" xmlns="http://www.w3.org/2000/svg" xmlns:cc="http://creativecommons.org/ns#" xmlns:dc="http://purl.org/dc/elements/1.1/" xmlns:inkscape="http://www.inkscape.org/namespaces/inkscape" xmlns:rdf="http://www.w3.org/1999/02/22-rdf-syntax-ns#" xmlns:sodipodi="http://sodipodi.sourceforge.net/DTD/sodipodi-0.dtd" xmlns:svg="http://www.w3.org/2000/svg"><defs id="defs7"/><g id="g5445" transform="translate(478.1119,-1862.5356)"><path d="m -279.73727,2045.3817 c -29.65925,0.4932 -59.2675,2.3747 -92.54868,8.0859 -5.52214,1.5225 -14.85109,3.2354 -20.74214,3.8091 -17.82287,1.4475 -35.60852,1.8722 -53.70101,1.7278 -6.55152,0.2438 -9.91095,-0.5259 -13.62297,2.4028 -1.44937,1.1175 -1.78978,2.2519 -1.75781,4.2188 3.18646,34.0396 5.44958,79.9807 0.11719,118.2419 -0.11203,1.1906 -0.27206,3.0656 0.87881,4.9509 1.15097,1.8844 2.63409,2.7638 5.65433,3.6328 1.15575,0.3328 2.50359,0.8738 13.85744,0.9375 36.05702,-0.3178 63.72239,-5.5978 77.63646,30.0881 12.22413,24.1696 18.0129,31.8749 34.68742,50.3905 12.48485,13.8609 15.26706,19.9021 20.36133,45.6449 5.0414,25.4728 6.45346,29.5302 11.30857,31.3762 1.41412,0.5212 2.85365,0.7922 4.27734,0.8494 6.17005,0.255 12.36522,-3.5513 18.07608,-8.8182 19.21468,-19.1277 7.09189,-56.2208 -1.93349,-82.2063 -3.74887,-10.0172 -6.82621,-20.07 -6.82621,-22.3537 0,-4.7635 0.495,-6.7716 10.01951,-7.5 l 54.22845,0 c 9.04292,0.047 20.84658,1.0453 29.82406,-3.5156 8.82139,-5.25 13.94397,-13.68 14.23834,-22.3828 -16.89896,0.1706 -33.81058,0.038 -50.68358,-0.056 -20.80476,2.5219 -39.29194,-20.8087 -31.81624,-40.4005 -22.07311,-8.0381 -29.81543,-39.2137 -15.61525,-57.4217 -11.07213,-13.62 -10.67341,-34.7297 -0.14653,-48.5156 3.32296,-1.5075 -0.33853,-3.0046 -1.31831,-4.6584 -1.95327,-2.6672 -3.41915,-5.5444 -4.45311,-8.5256 z" id="path21381" style="fill:#37484a;fill-opacity:1;fill-rule:evenodd;stroke-width:0.50099999;stroke-linejoin:bevel;overflow:visible"/><path d="m -150.88165,1885.3329 c 1.42369,0.056 2.86022,0.3281 4.27434,0.8494 4.85511,1.8459 6.25639,5.895 11.29779,31.3687 5.09427,25.7427 7.88651,31.7812 20.37136,45.6421 16.674432,18.5156 22.45167,26.2283 34.675799,50.398 13.914158,35.6858 41.60241,30.3871 77.6596136,30.0693 11.3537566,0.066 12.6847224,0.6103 13.8404704,0.9431 3.020243,0.87 4.497552,1.7644 5.648519,3.6497 1.150966,1.8853 0.986997,3.7331 0.87506,4.9247 -5.332582,38.2602 -3.061868,84.2107 0.124781,118.2494 0.03187,1.9669 -0.299905,3.1078 -1.749277,4.2244 -3.712117,2.9297 -7.0707037,2.1572 -13.6222208,2.4 -18.0924922,-0.1435 -35.8675472,0.3018 -53.6905092,1.7493 -5.890862,0.5738 -15.24831,2.2772 -20.770455,3.7997 -51.206981,8.7881 -93.686891,8.5678 -141.097851,8.0484 -9.52301,-0.2006 -22.21814,2.5219 -28.69531,-5.5996 -6.47558,-8.1197 -5.31899,-14.4956 -3.39937,-19.17 1.48697,-4.1241 8.7447,-11.2331 3.34977,-11.4487 -13.9405,-1.7991 -27.46353,-10.7231 -25.97028,-26.819 0.93028,-17.4009 13.43106,-18.8344 13.42234,-21.6712 0.0562,-3.4181 -7.96011,-4.7344 -11.39782,-10.9978 -5.91017,-9.7678 -3.81374,-28.9378 9.77323,-35.6437 2.76834,-2.0306 2.22684,-3.6862 0.6,-5.2987 -19.34761,-12.8306 -16.05137,-35.0859 1.09978,-45.2915 8.97739,-4.5609 20.75124,-3.5466 29.79425,-3.4987 19.40911,0 35.41164,0 54.24007,0 9.5246,-0.7285 10.02288,-2.7357 10.02288,-7.4991 0,-2.2837 -3.07462,-12.3543 -6.82348,-22.3706 -9.02548,-25.9865 -21.14002,-63.0814 -1.92534,-82.2092 5.71095,-5.2678 11.90182,-9.0524 18.07186,-8.7984 z" id="path22250" style="fill:#1b8e99;fill-opacity:1;fill-rule:evenodd;stroke-width:0.50099999;stroke-linejoin:bevel;overflow:visible"/></g></svg>